HIERARCHY
ROOT Hips
{
	OFFSET 0.00000 0.00000 0.00000
	CHANNELS 6 Xposition Yposition Zposition Zrotation Yrotation Xrotation 
	JOINT RightUpLegDummy
	{
		OFFSET 0 0 0
		CHANNELS 3 Zrotation Yrotation Xrotation
		JOINT RightUpLeg
		{
			OFFSET -3.52197 -3.41223 0.04002
			CHANNELS 3 Zrotation Yrotation Xrotation
			JOINT RightLeg
			{
				OFFSET 0.00006 -17.42390 1.60435
				CHANNELS 3 Zrotation Yrotation Xrotation
				JOINT RightFoot
				{
					OFFSET 0.06154 -16.50078 -1.63900
					CHANNELS 3 Zrotation Yrotation Xrotation
					JOINT RightToes
					{
						OFFSET 0.00298 -1.73825 3.34613
						CHANNELS 3 Zrotation Yrotation Xrotation
						End Site
						{
							OFFSET 0.00480 -0.05416 3.85043
						}
					}
				}
			}
		}
	}
	JOINT SpineDummy
	{
		OFFSET 0 0 0
		CHANNELS 3 Zrotation Yrotation Xrotation
		JOINT Spine
		{
			OFFSET 0.00000 4.68130 0.00000
			CHANNELS 3 Zrotation Yrotation Xrotation
			JOINT Spine1
			{
				OFFSET -0.00000 10.10138 0.05002
				CHANNELS 3 Zrotation Yrotation Xrotation
				JOINT HEadDummy
				{
					OFFSET 0 0 0
					CHANNELS 3 Zrotation Yrotation Xrotation
					JOINT Head
					{
						OFFSET -0.00000 3.43865 0.00438
						CHANNELS 3 Zrotation Yrotation Xrotation
						End Site
						{
							OFFSET -0.11417 5.02924 0.98962
						}
					}
				}
				JOINT LeftShoulder1Dummy
				{
					OFFSET 0 0 0
					CHANNELS 3 Zrotation Yrotation Xrotation
					JOINT LeftShoulder1
					{
						OFFSET 3.53937 -0.14262 -0.08662
						CHANNELS 3 Zrotation Yrotation Xrotation
						JOINT LeftArm
						{
							OFFSET 4.04833 -0.00133 0.12681
							CHANNELS 3 Zrotation Yrotation Xrotation
							JOINT LeftForeArm
							{
								OFFSET 10.33880 -0.01036 -0.55515
								CHANNELS 3 Zrotation Yrotation Xrotation
								JOINT LeftHand
								{
									OFFSET 8.69677 0.07543 0.40060
									CHANNELS 3 Zrotation Yrotation Xrotation
									End Site
									{
										OFFSET 5.28377 -0.21905 0.59205
									}
								}
							}
						}
					}
				}
				JOINT RightShoulderDummy
				{
					OFFSET 0 0 0
					CHANNELS 3 Zrotation Yrotation Xrotation
					JOINT RightShoulder
					{
						OFFSET -3.53937 -0.14262 -0.08660
						CHANNELS 3 Zrotation Yrotation Xrotation
						JOINT RightArm
						{
							OFFSET -4.04833 -0.00133 0.12683
							CHANNELS 3 Zrotation Yrotation Xrotation
							JOINT RightForeArm
							{
								OFFSET -10.37987 -0.01039 -0.55511
								CHANNELS 3 Zrotation Yrotation Xrotation
								JOINT RightHand
								{
									OFFSET -8.67398 0.07538 0.40058
									CHANNELS 3 Zrotation Yrotation Xrotation
									End Site
									{
										OFFSET -5.24810 -0.21916 0.59204
									}
								}
							}
						}
					}
				}
			}
		}
	}
	JOINT LeftUpLegDummy
	{
		OFFSET 0 0 0
		CHANNELS 3 Zrotation Yrotation Xrotation
		JOINT LeftUpLeg
		{
			OFFSET 3.52197 -3.41223 0.04002
			CHANNELS 3 Zrotation Yrotation Xrotation
			JOINT LeftLeg
			{
				OFFSET -0.00012 -17.42399 1.60337
				CHANNELS 3 Zrotation Yrotation Xrotation
				JOINT LeftFoot
				{
					OFFSET -0.09972 -16.50070 -1.63802
					CHANNELS 3 Zrotation Yrotation Xrotation
					JOINT LeftToes
					{
						OFFSET -0.01575 -1.73823 3.34611
						CHANNELS 3 Zrotation Yrotation Xrotation
						End Site
						{
							OFFSET 0.03150 -0.01868 3.85031
						}
					}
				}
			}
		}
	}
}
MOTION
Frames: 15
Frame Time: 0.033333
-74.8420 39.3192 -2.8620 71.8957 81.4450 74.1078 0.0000 0.0000 0.0000 -8.5478 -1.1946 7.3587 -8.9298 -8.4281 40.5662 15.7596 -4.4836 20.7257 0.0000 0.0000 -0.0000 0.0000 0.0000 0.0000 -13.0436 1.5259 -7.9998 1.7978 1.3448 20.3447 0.0000 0.0000 0.0000 -0.3790 -0.3500 -12.7096 0.0000 0.0000 0.0000 -20.2287 -5.5444 2.4121 -59.0285 1.3132 -26.0829 -9.6975 5.0529 50.9260 11.8545 -2.0812 -0.7448 0.0000 0.0000 0.0000 18.0805 2.2221 1.4131 60.5151 25.9468 24.0239 2.6039 21.4600 -0.6881 -9.2120 2.7737 -0.6245 0.0000 0.0000 0.0000 -9.0010 -5.3204 -20.1162 -1.3067 13.1373 8.2194 5.2814 -0.9354 7.7102 0.0000 -0.0000 0.0000
-73.6254 39.2476 -2.8962 77.5733 80.5347 79.4469 0.0000 0.0000 0.0000 -9.5169 -0.7166 1.4535 -11.0681 -7.2860 50.5168 13.5971 -4.6529 27.2809 0.0000 0.0000 -0.0000 0.0000 0.0000 0.0000 -13.2809 1.2321 -5.9271 -0.6103 1.3206 19.3597 0.0000 0.0000 0.0000 -0.4389 0.1969 -12.6434 0.0000 0.0000 0.0000 -19.7403 -5.1175 2.2598 -58.5991 -2.0169 -25.2573 -9.7814 5.1083 49.0422 11.9751 -1.9738 -0.7407 0.0000 0.0000 0.0000 18.0193 2.0448 1.3663 61.2781 24.1147 19.5097 5.8196 18.5350 6.0885 -8.9241 2.6447 -0.5945 0.0000 0.0000 0.0000 -10.7088 -5.4920 -19.1090 -0.7651 12.6420 11.2864 5.8324 -0.8391 4.5317 0.0000 -0.0000 0.0000
-71.9743 39.3946 -2.9673 82.3310 80.5305 83.5714 0.0000 0.0000 0.0000 -9.5390 -0.3670 -5.3003 -12.3087 -5.5007 59.9646 11.1286 -3.8179 27.4119 0.0000 0.0000 -0.0000 0.0000 0.0000 0.0000 -12.8242 0.5665 -4.3303 -2.0938 0.7593 18.3048 0.0000 0.0000 0.0000 -0.5720 0.7291 -11.7242 0.0000 0.0000 0.0000 -19.7200 -3.9979 1.9648 -57.9592 -6.3114 -23.7182 -10.2284 5.1610 47.0439 14.1165 -2.3809 -0.9274 0.0000 0.0000 0.0000 17.8192 1.9904 1.3427 61.6312 21.8083 15.7325 8.8465 15.4583 14.1877 -6.8880 2.4512 -0.4449 0.0000 0.0000 0.0000 -11.7727 -5.2486 -16.0193 -0.4982 11.7754 12.2194 6.2251 -0.7352 1.9167 0.0000 -0.0000 0.0000
-70.2416 39.6428 -3.0352 88.2985 81.1862 88.8484 0.0000 0.0000 0.0000 -9.0010 -0.6635 -11.1183 -12.9779 -4.2945 65.6497 9.1394 -2.5861 20.9990 0.0000 0.0000 -0.0000 0.0000 0.0000 0.0000 -12.5050 -0.3491 -3.1539 -1.9952 -0.4244 16.9866 0.0000 0.0000 0.0000 -0.8292 1.3233 -10.3594 0.0000 0.0000 0.0000 -20.1819 -3.0786 1.7522 -57.2589 -9.8512 -21.3785 -11.3388 5.2940 44.2391 16.9769 -2.6971 -1.1656 0.0000 0.0000 0.0000 17.6416 1.9418 1.3220 61.5641 18.9871 15.3163 10.4232 13.7868 19.2084 -4.9069 2.1505 -0.3006 0.0000 0.0000 0.0000 -12.0259 -4.5956 -12.1158 -0.6096 10.1785 11.9386 6.0053 -0.5521 -0.7799 0.0000 -0.0000 0.0000
-68.5387 39.7470 -3.0686 97.4176 81.6286 97.4521 0.0000 0.0000 0.0000 -8.6546 -1.2455 -16.4040 -13.8355 -3.9603 68.0169 8.2680 -1.9030 15.3385 0.0000 0.0000 -0.0000 0.0000 0.0000 0.0000 -12.7932 -1.2806 -2.0377 -1.3341 -1.7973 15.5661 0.0000 0.0000 0.0000 -1.0583 1.7315 -9.4896 0.0000 0.0000 0.0000 -20.6663 -3.2087 1.8177 -56.3709 -12.7216 -18.6938 -12.7757 4.7885 39.6482 18.3681 -2.4907 -1.2308 0.0000 0.0000 0.0000 17.6500 1.8096 1.2903 61.3169 15.0591 19.5981 10.0351 14.7323 17.2028 -4.7286 1.6088 -0.2702 0.0000 0.0000 0.0000 -12.1537 -3.9333 -8.8301 -0.6162 8.1578 12.5799 5.8797 -0.3554 -3.9788 0.0000 -0.0000 0.0000
-66.8297 39.7593 -3.0815 108.0690 81.8589 107.7480 0.0000 0.0000 0.0000 -8.2913 -1.6897 -21.1730 -14.2952 -4.3191 67.2707 7.4246 -1.5376 12.7549 0.0000 0.0000 -0.0000 0.0000 0.0000 0.0000 -12.9201 -2.1709 -1.7303 -0.6593 -2.9561 15.0184 0.0000 0.0000 0.0000 -1.1756 1.6675 -9.2844 0.0000 0.0000 0.0000 -21.1154 -4.0620 2.0805 -54.9457 -16.0728 -16.1055 -13.9091 1.5718 34.9756 18.0928 -2.2367 -1.1747 0.0000 0.0000 0.0000 17.7768 1.7730 1.2876 61.0277 10.5502 24.3445 8.3611 16.8123 11.5719 -5.6151 1.3034 -0.3117 0.0000 0.0000 0.0000 -12.1050 -3.4177 -5.7704 -0.4093 6.4838 13.3139 6.2552 -0.2061 -6.8131 0.0000 -0.0000 0.0000
-65.1029 39.8160 -3.0955 118.6670 82.2096 118.0370 0.0000 0.0000 0.0000 -7.6791 -2.0877 -24.7463 -13.7312 -5.2995 63.0112 6.6532 -1.2097 9.7563 0.0000 0.0000 -0.0000 0.0000 0.0000 0.0000 -12.3840 -2.9903 -2.3030 0.0825 -3.8696 15.5407 0.0000 0.0000 0.0000 -1.2439 1.3994 -9.3032 0.0000 0.0000 0.0000 -21.5993 -4.6726 2.2852 -53.1476 -20.5032 -12.5318 -14.5084 -1.5720 30.4975 17.2303 -2.3714 -1.1358 0.0000 0.0000 0.0000 17.7864 1.8563 1.3084 60.9009 6.5936 23.5470 7.6757 17.4552 10.0836 -6.2644 1.6896 -0.3670 0.0000 0.0000 0.0000 -11.4893 -2.7916 -2.3126 -0.3082 5.2433 12.9656 6.8687 -0.0799 -9.0965 0.0000 -0.0000 0.0000
-63.3951 39.8265 -3.0985 127.9680 82.5440 127.2000 0.0000 0.0000 0.0000 -7.1757 -2.6401 -26.7107 -12.3440 -6.9104 54.8407 7.7745 -1.1297 5.5718 0.0000 0.0000 -0.0000 0.0000 0.0000 0.0000 -11.6722 -3.6844 -3.0013 0.7254 -4.6118 16.1515 0.0000 0.0000 0.0000 -1.2659 1.3125 -9.4132 0.0000 0.0000 0.0000 -21.7755 -4.6762 2.2995 -51.7228 -25.3832 -8.9614 -14.6055 -3.7343 27.3660 16.5885 -2.6592 -1.1314 0.0000 0.0000 0.0000 17.6623 1.8632 1.3039 60.9227 3.3581 17.9797 8.4430 16.4231 13.5946 -6.7315 2.2291 -0.4225 0.0000 0.0000 0.0000 -10.5032 -1.9517 0.9149 -0.3683 4.0322 12.5763 7.4671 0.0802 -11.4944 0.0000 -0.0000 0.0000
-61.6832 39.7257 -3.0873 135.5740 82.7312 135.1600 0.0000 0.0000 0.0000 -6.8661 -2.9644 -27.4034 -10.5491 -9.2505 42.8856 9.4021 -1.2335 3.7305 0.0000 0.0000 -0.0000 0.0000 0.0000 0.0000 -11.0527 -4.3276 -3.8036 1.2335 -5.2116 16.2638 0.0000 0.0000 0.0000 -1.2294 1.3693 -9.7305 0.0000 0.0000 0.0000 -21.3449 -4.4823 2.2130 -51.1592 -29.6778 -6.0363 -14.2437 -5.7322 24.9880 16.2795 -2.7852 -1.1266 0.0000 0.0000 0.0000 17.5694 1.7847 1.2804 60.8255 0.4361 11.4015 9.7849 14.5703 18.8848 -7.1794 2.2374 -0.4521 0.0000 0.0000 0.0000 -9.4984 -1.2858 3.5132 -0.3479 2.8736 12.4771 7.6451 0.2517 -13.8529 0.0000 -0.0000 0.0000
-59.9800 39.6586 -3.0778 142.4210 82.8701 142.9380 0.0000 0.0000 0.0000 -6.7056 -2.3145 -27.0601 -7.7693 -11.9199 27.5615 8.7620 -1.2191 4.7189 0.0000 0.0000 -0.0000 0.0000 0.0000 0.0000 -10.4795 -4.9800 -5.2607 2.2279 -5.8649 16.5623 0.0000 0.0000 0.0000 -1.2247 1.4893 -10.1781 0.0000 0.0000 0.0000 -20.6060 -4.4187 2.1404 -51.1499 -32.8498 -2.3951 -13.3891 -8.4496 21.0599 16.1505 -2.8383 -1.1244 0.0000 0.0000 0.0000 17.5171 1.7449 1.2682 60.4047 -1.9161 3.3910 11.5437 11.3846 26.9992 -6.9829 2.0311 -0.4288 0.0000 0.0000 0.0000 -8.4190 -1.0075 6.0380 -0.3585 1.9198 11.0659 6.8557 0.3149 -15.0898 0.0000 -0.0000 0.0000
-58.2822 39.6174 -3.0464 146.9820 82.8720 148.5060 0.0000 0.0000 0.0000 -5.9769 -2.8843 -25.6049 -4.0268 -10.9920 10.7748 8.8906 -1.2377 4.5368 0.0000 0.0000 -0.0000 0.0000 0.0000 0.0000 -10.6827 -5.5553 -6.9633 4.0258 -6.7997 17.4413 0.0000 0.0000 0.0000 -1.2986 1.8808 -10.6829 0.0000 0.0000 0.0000 -20.0253 -4.3553 2.0807 -51.2461 -34.9877 3.9661 -11.7812 -12.1179 13.8339 16.0902 -2.9513 -1.1349 0.0000 0.0000 0.0000 17.4186 1.6270 1.2351 59.7944 -3.3065 -6.1173 12.6682 6.7154 38.1489 -6.1499 2.2473 -0.3848 0.0000 0.0000 0.0000 -7.3114 -0.6257 8.6403 -0.7428 0.8385 9.0385 5.2631 0.2803 -15.4147 0.0000 -0.0000 0.0000
-56.5144 39.4726 -2.9704 148.6220 82.8025 150.5660 0.0000 0.0000 0.0000 -5.4537 -4.3937 -23.9185 -0.7414 -8.0311 -1.4597 13.1790 -1.4174 1.0859 0.0000 0.0000 -0.0000 0.0000 0.0000 0.0000 -11.6094 -5.9583 -7.8522 5.9596 -7.8025 18.2189 0.0000 0.0000 0.0000 -1.3793 2.5736 -11.4163 0.0000 0.0000 0.0000 -19.6856 -4.3056 2.0428 -51.2334 -36.2608 12.7826 -9.1413 -16.0825 4.0841 16.0006 -3.0083 -1.1359 0.0000 0.0000 0.0000 17.3971 1.3703 1.1724 59.2860 -4.1273 -12.5742 12.2285 2.8765 46.1961 -5.5062 2.5183 -0.3530 0.0000 0.0000 0.0000 -6.3116 0.0570 11.3212 -1.1949 -0.3992 8.3881 3.5963 0.2287 -15.6513 0.0000 -0.0000 0.0000
-54.6890 39.2838 -2.8901 151.3900 83.3425 153.2030 0.0000 0.0000 0.0000 -4.6051 -5.0137 -23.0861 1.2028 -7.4413 -5.2761 16.5652 -1.3792 -1.9825 0.0000 0.0000 -0.0000 0.0000 0.0000 0.0000 -11.4034 -5.9895 -7.6886 7.2435 -8.4324 18.4370 0.0000 0.0000 0.0000 -1.5493 3.2168 -12.2881 0.0000 0.0000 0.0000 -19.6238 -4.4959 2.0878 -50.9049 -36.4931 21.3265 -5.8722 -19.4727 -5.1974 15.8368 -2.8885 -1.1083 0.0000 0.0000 0.0000 17.6266 1.2141 1.1448 58.7275 -5.1047 -15.2635 11.3142 1.0575 48.2870 -5.1408 1.9923 -0.3090 0.0000 0.0000 0.0000 -5.3477 0.3946 14.2245 -0.7564 -0.7502 8.7692 1.6891 0.1534 -15.5213 0.0000 -0.0000 0.0000
-52.7488 39.0633 -2.8323 158.5350 84.5970 160.0890 0.0000 0.0000 0.0000 -2.8299 -4.0738 -23.1333 1.0924 -10.2399 -2.2572 14.0112 -1.4122 0.0162 0.0000 0.0000 -0.0000 0.0000 0.0000 0.0000 -9.5091 -5.8878 -7.7214 7.7251 -8.7091 18.5422 0.0000 0.0000 0.0000 -2.0761 3.7474 -12.6795 0.0000 0.0000 0.0000 -20.0840 -4.9235 2.2357 -50.2230 -35.3600 26.5723 -3.1368 -21.8600 -10.7895 15.8504 -2.7728 -1.0941 0.0000 0.0000 0.0000 18.0154 1.4775 1.2267 57.8403 -6.1409 -16.8262 10.7365 0.1769 47.2272 -4.5289 0.7602 -0.2326 0.0000 0.0000 0.0000 -4.4787 0.1218 16.7994 0.5966 0.3085 10.3742 -1.5273 0.0330 -14.9801 0.0000 -0.0000 0.0000
-50.6933 38.8736 -2.7846 172.9240 85.9919 174.3710 0.0000 0.0000 0.0000 -0.7133 -2.3968 -22.9971 -0.1254 -12.4414 2.1629 8.1223 -1.2103 6.4175 0.0000 0.0000 -0.0000 0.0000 0.0000 0.0000 -6.9002 -5.9725 -8.5379 7.7718 -8.9106 18.7759 0.0000 0.0000 0.0000 -2.8823 4.5249 -12.1822 0.0000 0.0000 0.0000 -20.8999 -5.1970 2.3745 -50.0275 -32.9715 27.9606 -1.8347 -23.0897 -11.9034 16.4917 -2.9381 -1.1624 0.0000 0.0000 0.0000 18.3094 1.9687 1.3624 56.7372 -6.4210 -17.9658 10.3369 -0.8267 46.3004 -3.5581 -0.2917 -0.1584 0.0000 0.0000 0.0000 -3.4999 -0.7881 17.8769 1.7343 2.9768 14.3875 -6.0581 0.0058 -12.5491 0.0000 -0.0000 0.0000
